Coordinates
version=1
nRows=10
nColumns=34
inDegrees=yes

Units are S.I. units (second, meters, Newtons, ...)
If the header above contains a line with 'inDegrees', this indicates whether rotational values are in degrees (yes) or radians (no).

endheader
time	pelvis_tilt	pelvis_list	pelvis_rotation	pelvis_tx	pelvis_ty	pelvis_tz	hip_flexion_r	hip_adduction_r	hip_rotation_r	knee_angle_r	ankle_angle_r	subtalar_angle_r	mtp_angle_r	hip_flexion_l	hip_adduction_l	hip_rotation_l	knee_angle_l	ankle_angle_l	subtalar_angle_l	mtp_angle_l	lumbar_extension	lumbar_bending	lumbar_rotation	arm_flex_r	arm_add_r	arm_rot_r	elbow_flex_r	pro_sup_r	arm_flex_l	arm_add_l	arm_rot_l	elbow_flex_l	pro_sup_l
      0.00000000	     -1.06944913	     -1.99253393	     -1.29785631	      1.53302279	      0.85751673	     -0.10667700	      0.45154770	     -3.37847539	     -4.38037086	      6.59583725	      4.34977757	     -6.65350964	      0.00000000	     -1.68420876	     -7.36039336	     -3.24516006	      4.68293284	     10.89137505	     -0.60827231	      0.00000000	     -6.65889365	      2.83770914	     -3.24576054	     11.63327106	     -6.29614417	     40.92073111	     69.52708836	     88.27578614	      3.45650166	     -4.29071315	     24.86693769	     62.96831151	     82.80187007
      0.01666670	     -2.34103574	     -2.00642759	     -1.14094233	      1.53459197	      0.85542115	     -0.10736082	      1.58775213	     -3.04461344	     -3.59839410	      6.34974333	      7.13955081	     -4.72015422	      0.00000000	      0.06844522	     -6.96932566	     -2.47477778	      4.55386899	     10.85793706	     -0.11943952	      0.00000000	     -4.40627677	      3.23071507	     -3.22938940	     10.57963337	     -5.89801029	     38.66714373	     69.19466271	     87.80749189	      3.06069883	     -4.12480762	     23.87328261	     61.97251657	     82.21297589
      0.03333330	     -2.28816366	     -1.53184504	     -1.19212839	      1.53423746	      0.85601599	     -0.10685474	      1.21232990	     -3.58410353	     -3.94434986	      5.43963918	      7.29220839	     -4.26755810	      0.00000000	     -0.33247212	     -6.53949015	     -2.78632007	      3.91883081	     10.33402681	      0.38948188	      0.00000000	     -4.47792398	      2.57743779	     -2.76123465	     10.57091083	     -5.53178494	     37.63581310	     68.43841379	     87.74485440	      3.78413936	     -4.54333292	     23.74598210	     61.15008118	     81.86498665
      0.05000000	     -1.80920932	     -1.21202190	     -1.10174998	      1.53390517	      0.85780869	     -0.10672290	      0.47199757	     -4.01147604	     -3.85756121	      4.90159304	      7.56435934	     -3.90948048	      0.00000000	     -1.34871505	     -6.18352145	     -2.61023165	      3.13657831	      9.82161774	      0.31602423	      0.00000000	     -5.00463375	      2.06356665	     -2.25731950	     10.42354921	     -5.52967671	     37.51989870	     68.36473937	     87.82161818	      4.43955398	     -4.83662807	     24.20748890	     60.63527430	     81.80535382
      0.06666670	     -1.86666773	     -1.14861516	     -1.02095871	      1.53367722	      0.85812153	     -0.10673097	      0.41739093	     -4.05992953	     -3.73471183	      4.62786785	      7.68295569	     -3.88729496	      0.00000000	     -1.44186378	     -6.12032712	     -2.46375539	      2.86224190	      9.85413775	      0.35134671	      0.00000000	     -4.99140348	      2.08625189	     -2.16326928	     10.40767996	     -5.36629755	     37.63290716	     68.48573923	     87.83532979	      4.56763829	     -4.84313514	     24.27076177	     60.63934332	     81.81924815
      0.08333330	     -0.93846714	     -1.08305863	     -1.02293417	      1.53335291	      0.85920740	     -0.10657877	     -0.77848595	     -4.08732376	     -3.46276527	      4.21536133	      7.72971242	     -4.01239357	      0.00000000	     -2.83920070	     -5.99261974	     -2.03538641	      2.17165776	      9.28227551	     -0.09305381	      0.00000000	     -6.05350199	      1.89926487	     -1.77467079	     10.64399036	     -6.07073445	     38.95389959	     70.14425573	     87.98466553	      5.52372494	     -5.08351148	     26.07698680	     60.31507708	     82.26475537
      0.10000000	     -0.73075782	     -1.10234018	     -0.89876334	      1.53305556	      0.85906682	     -0.10657974	     -1.11014024	     -4.03987516	     -3.30579002	      4.00622936	      7.70842575	     -4.31224336	      0.00000000	     -3.09573371	     -6.00732105	     -1.66784979	      2.06712608	      9.33479343	     -0.29380537	      0.00000000	     -6.23743353	      1.89690132	     -1.54601970	     10.64723679	     -6.52118651	     39.63808646	     71.30430437	     88.01298591	      6.15416606	     -5.30146824	     27.54347519	     60.20756437	     82.77427433
      0.11666670	     -0.67891233	     -1.10492142	     -0.92081385	      1.53292810	      0.85856910	     -0.10645152	     -1.14176625	     -4.01769245	     -3.24163102	      4.01596417	      7.68788253	     -4.29490248	      0.00000000	     -3.14928207	     -6.01693094	     -1.59711674	      2.09741119	      9.27105381	     -0.25823528	      0.00000000	     -6.16085742	      1.88275634	     -1.54324044	     10.65714642	     -6.44822601	     39.68311832	     71.38254283	     88.01337853	      6.27353179	     -5.29078012	     27.57349810	     60.22661117	     82.79507146
      0.13333330	     -0.67393179	     -1.10106468	     -0.91894946	      1.53291260	      0.85800648	     -0.10653465	     -1.13911110	     -4.01384209	     -3.24076798	      4.01428228	      7.68775149	     -4.29485884	      0.00000000	     -3.15082618	     -6.01645111	     -1.59655933	      2.09752854	      9.27014276	     -0.25798185	      0.00000000	     -6.16074051	      1.88284898	     -1.54311121	     10.65713344	     -6.44819803	     39.68400568	     71.38382128	     88.01340224	      6.27459722	     -5.29152939	     27.57397710	     60.22642730	     82.79536321
      0.15000000	     -0.67056984	     -1.09676742	     -0.91648550	      1.53289405	      0.85781112	     -0.10665592	     -1.13684098	     -4.01141079	     -3.23946886	      4.01265740	      7.68755094	     -4.29498948	      0.00000000	     -3.15390907	     -6.01781673	     -1.59544358	      2.09849617	      9.26853725	     -0.25747776	      0.00000000	     -6.15957686	      1.88318942	     -1.54309013	     10.65714692	     -6.44865193	     39.68521652	     71.38581713	     88.01344932	      6.27648375	     -5.29340549	     27.57424110	     60.22628041	     82.79568830
